<?xml version="1.0" encoding="utf-8"?>
<!-- Generator: Adobe Illustrator 27.0.0, SVG Export Plug-In . SVG Version: 6.00 Build 0)  -->
<svg version="1.1" xmlns="http://www.w3.org/2000/svg" xmlns:xlink="http://www.w3.org/1999/xlink" x="0px" y="0px"
	 viewBox="0 0 1024 1024" style="enable-background:new 0 0 1024 1024;" xml:space="preserve">
<style type="text/css">
	.st0{display:none;}
	.st1{display:inline;opacity:0.5;}
	.st2{display:none;fill:#ACD9EA;}
	.st3{display:none;fill:#FFF1E3;}
	.st4{display:none;fill:url(#SVGID_1_);}
	.st5{display:inline;fill:#FFF1E3;}
	.st6{display:inline;fill:#FFD7B6;}
	.st7{display:inline;fill:#ACD9EA;}
	.st8{display:inline;fill:#6DB1C6;}
	.st9{display:inline;fill:#FFFFFF;}
	.st10{display:inline;}
	.st11{fill:#104B67;}
	.st12{fill:none;stroke:#104B67;stroke-width:12;stroke-linecap:round;stroke-miterlimit:10;}
	.st13{display:inline;fill:none;stroke:#5D9CAF;stroke-width:10;stroke-linecap:round;stroke-miterlimit:10;}
	.st14{display:inline;fill:none;stroke:#104B67;stroke-width:12;stroke-linecap:round;stroke-miterlimit:10;}
	.st15{fill:#6DB1C6;}
	.st16{fill:#ACD9EA;}
	.st17{fill:#FFFFFF;}
	.st18{fill:url(#SVGID_00000089551739429695472450000014257393717754284985_);}
	.st19{fill:#FFF1E3;}
	.st20{fill:none;stroke:#104B67;stroke-width:12;stroke-linecap:round;stroke-linejoin:round;stroke-miterlimit:10;}
	.st21{display:inline;fill:#104B67;}
	.st22{display:inline;fill:url(#SVGID_00000165196363500799223990000009969616477704447623_);}
	.st23{display:inline;fill:none;stroke:#104B67;stroke-width:12;stroke-linecap:round;stroke-linejoin:round;stroke-miterlimit:10;}
	.st24{display:none;fill:#6DB1C6;}
	.st25{display:none;fill:#FFFFFF;}
	.st26{display:none;fill:url(#SVGID_00000039119787982772897220000008677653286769584287_);}
</style>
<g id="Warstwa_1" class="st0">
	<g class="st1">
		
			<image style="overflow:visible;" width="1024" height="1024" xlink:href="../../book-self_logo.png"  transform="matrix(1.6598 0 0 1.6598 -337.8228 -337.8228)">
		</image>
		
			<image style="overflow:visible;" width="1024" height="1024" xlink:href="../../book-self_logo.png"  transform="matrix(1.6598 0 0 1.6598 -337.8228 -337.8228)">
		</image>
	</g>
</g>
<g id="Warstwa_10">
	<path class="st2" d="M298.6,527.4c3.3,10.3,7.4,20.3,12.1,29.9l163.8,82.5l-11.7,28.3c-2.3,5.7,1.1,12,7,13.3
		c15.3,3.2,31.1,4.9,47.3,4.9c16.2,0,32-1.7,47.3-4.9c6-1.3,9.4-7.6,7-13.3l-11.7-28.3l163.9-82.5c4.7-9.6,8.7-19.6,12.1-29.9H298.6
		z"/>
	<path class="st3" d="M517.1,604.9c15.2-12.7,38-30.2,67.7-47.3c68.9-39.7,97.2-32.9,118.3-64.3c24.3-36.3,20.8-96.8-10-125.5
		c-8-7.5-16.5-11.6-22.7-13.9h0c-22.9-6.4-40.6-4.5-51.9-1.8c-51.8,12.1-91.8,68.3-101.3,141.3c-9.5-72.9-49.5-129.1-101.3-141.3
		c-11-2.6-28.1-4.5-50.1,1.3c-1.3,0.4-2.7,0.8-3.9,1.3c-5.9,2.4-13.5,6.4-20.6,13.1c-30.8,28.8-34.4,89.2-10,125.5
		c21,31.4,49.3,24.5,118.3,64.3C479.1,574.8,501.8,592.2,517.1,604.9"/>
	
		<radialGradient id="SVGID_1_" cx="517.095" cy="477.2749" r="194.3071" fx="516.3524" fy="538.1804" gradientTransform="matrix(1 7.711014e-03 -8.572345e-03 1.1117 4.1067 -57.2838)" gradientUnits="userSpaceOnUse">
		<stop  offset="0.2349" style="stop-color:#FFD7B6"/>
		<stop  offset="0.3358" style="stop-color:#FFDEC1"/>
		<stop  offset="0.5552" style="stop-color:#FFE9D5"/>
		<stop  offset="0.7054" style="stop-color:#FFEDDC"/>
		<stop  offset="0.9963" style="stop-color:#FFF1E3;stop-opacity:0"/>
	</radialGradient>
	<path class="st4" d="M517.1,604.9c15.2-12.7,38-30.2,67.7-47.3c68.9-39.7,97.2-32.9,118.3-64.3c24.3-36.3,20.8-96.8-10-125.5
		c-8-7.5-16.5-11.6-22.7-13.9h0c-22.9-6.4-40.6-4.5-51.9-1.8c-51.8,12.1-91.8,68.3-101.3,141.3c-9.5-72.9-49.5-129.1-101.3-141.3
		c-11-2.6-28.1-4.5-50.1,1.3c-1.3,0.4-2.7,0.8-3.9,1.3c-5.9,2.4-13.5,6.4-20.6,13.1c-30.8,28.8-34.4,89.2-10,125.5
		c21,31.4,49.3,24.5,118.3,64.3C479.1,574.8,501.8,592.2,517.1,604.9"/>
	<g class="st0">
		<rect x="-280.6" y="93.2" class="st5" width="123" height="129.2"/>
		<rect x="-280.6" y="261.4" class="st6" width="123" height="129.2"/>
		<rect x="-280.6" y="422.8" class="st7" width="123" height="129.2"/>
		<rect x="-280.6" y="593" class="st8" width="123" height="129.2"/>
		<rect x="-280.6" y="758.4" class="st9" width="123" height="129.2"/>
	</g>
</g>
<g id="Warstwa_11" class="st0">
	<g class="st10">
		<g>
			<g>
				<path class="st11" d="M517.1,327.2c8.2,0,14.8,6.6,14.8,14.8s-6.6,14.8-14.8,14.8c-8.2,0-14.8-6.6-14.8-14.8
					S508.9,327.2,517.1,327.2 M517.1,315.2c-14.8,0-26.8,12-26.8,26.8s12,26.8,26.8,26.8s26.8-12,26.8-26.8S531.9,315.2,517.1,315.2
					L517.1,315.2z"/>
			</g>
		</g>
		<path class="st12" d="M650.2,382.2c0.3,5.3,0.3,12.9-1.5,21.7c-1.7,8.4-5.7,20.9-18.7,38.1c-8.6,11.4-20.8,21.8-44.7,41.9
			c-19.1,16.1-25,20.2-35.7,31.7c-8.1,8.8-14.7,16-20.7,27c-9.2,17.1-11.5,33.6-12,44.4c-0.5-10.8-2.8-27.2-12-44.4
			c-5.9-11-12.6-18.3-20.7-27c-10.7-11.6-16.6-15.7-35.7-31.7c-23.9-20.2-36-30.5-44.7-41.9c-13-17.2-17-29.7-18.7-38.1
			c-1.8-8.8-1.8-16.4-1.5-21.7c-7.3,2.8-28.5,12-43.1,35.2c-3.6,5.7-18.6,31-11.5,63.5c7,32.2,31.5,50.1,42.2,56.5
			c7.8,4.6,17.5,8.6,30.1,13.7c14.9,6.1,24.1,8.8,30.1,10.9c6.1,2.2,39.1,13.9,61.2,41.2c20.1,24.9,23.8,53.7,24.3,69.4
			c0.6-15.8,4.2-44.5,24.3-69.4c22.1-27.3,55-39,61.2-41.2c5.9-2.1,15.2-4.9,30.1-10.9c12.6-5.1,22.3-9.1,30.1-13.7
			c10.8-6.4,35.3-24.3,42.2-56.5c7-32.5-8-57.8-11.5-63.5C678.8,394.2,657.5,385,650.2,382.2L650.2,382.2z"/>
		<path class="st12" d="M516.4,605.5c15.2-12.8,38.2-30.5,68.4-47.8c68.9-39.7,97.2-32.9,118.3-64.3c24.3-36.3,20.8-96.8-10-125.5
			c-8-7.5-16.5-11.6-22.7-13.9h0c-22.9-6.4-40.6-4.5-51.9-1.8c-51.8,12.1-91.8,68.3-101.3,141.3c-9.5-72.9-49.5-129.1-101.3-141.3
			c-11-2.6-28.1-4.5-50.1,1.3c-1.3,0.4-2.7,0.8-3.9,1.3c-5.9,2.4-13.5,6.4-20.6,13.1c-30.8,28.8-34.4,89.2-10,125.5
			c21,31.4,49.3,24.5,118.3,64.3c30.1,17.4,53.1,35.1,68.4,47.8"/>
	</g>
</g>
<g id="Warstwa_9" class="st0">
	<g class="st10">
		<g>
			<g>
				<path class="st11" d="M517.1,327.2c8.2,0,14.8,6.6,14.8,14.8s-6.6,14.8-14.8,14.8c-8.2,0-14.8-6.6-14.8-14.8
					S508.9,327.2,517.1,327.2 M517.1,315.2c-14.8,0-26.8,12-26.8,26.8s12,26.8,26.8,26.8c14.8,0,26.8-12,26.8-26.8
					S531.9,315.2,517.1,315.2L517.1,315.2z"/>
			</g>
		</g>
		<path class="st12" d="M363.8,353.9c22.9-6.4,40.6-4.5,51.9-1.8c51.8,12.1,91.8,68.3,101.3,141.3"/>
		<path class="st12" d="M670.3,353.9c-22.9-6.4-40.6-4.5-51.9-1.8c-51.8,12.1-91.8,68.3-101.3,141.3"/>
		<path class="st12" d="M383.9,382.2c-7.3,2.8-28.5,12-43.1,35.2c-3.6,5.7-18.6,31-11.5,63.5c7,32.2,31.5,50.1,42.2,56.5
			c7.8,4.6,17.5,8.6,30.1,13.7c14.9,6.1,24.1,8.8,30.1,10.9c6.1,2.2,39.1,13.9,61.2,41.2c20.1,24.9,23.8,53.7,24.3,69.4"/>
		<path class="st12" d="M650.3,382.2c7.3,2.8,28.5,12,43.1,35.2c3.6,5.7,18.6,31,11.5,63.5c-7,32.2-31.5,50.1-42.2,56.5
			c-7.8,4.6-17.5,8.6-30.1,13.7c-14.9,6.1-24.1,8.8-30.1,10.9c-6.1,2.2-39.1,13.9-61.2,41.2c-20.1,24.9-23.8,53.7-24.3,69.4"/>
		<path class="st12" d="M383.9,382.2c-0.3,5.3-0.3,12.9,1.5,21.7c1.7,8.4,5.7,20.9,18.7,38.1c8.6,11.4,20.8,21.8,44.7,41.9
			c19.1,16.1,25,20.2,35.7,31.7c8.1,8.8,14.7,16,20.7,27c9.2,17.1,11.5,33.6,12,44.4"/>
		<path class="st12" d="M650.3,382.2c0.3,5.3,0.3,12.9-1.5,21.7c-1.7,8.4-5.7,20.9-18.7,38.1c-8.6,11.4-20.8,21.8-44.7,41.9
			c-19.1,16.1-25,20.2-35.7,31.7c-8.1,8.8-14.7,16-20.7,27c-9.2,17.1-11.5,33.6-12,44.4"/>
	</g>
</g>
<g id="Warstwa_5">
</g>
<g id="Warstwa_4" class="st0">
	<path class="st13" d="M363.3,439.1c2.9,8.5,7.9,20.9,17.1,34.2c10.7,15.6,22.1,25.1,41.7,41.2c20.7,17.1,22.7,15.9,38.1,29.6
		c11.3,10.1,23.5,21,33.9,36.5c7.5,11.1,19.4,32.5,23,65.2"/>
	<path class="st13" d="M670.6,440.2c-2.9,8.5-7.9,20.9-17.1,34.2c-10.7,15.6-22.1,25.1-41.7,41.2c-20.7,17.1-22.7,15.9-38.1,29.6
		c-11.3,10.1-23.5,21-33.9,36.5c-7.5,11.1-19.4,32.5-23,65.2"/>
</g>
<g id="Warstwa_3" class="st0">
	<g class="st10">
		<g>
			<path class="st11" d="M517.1,327.2c8.2,0,14.8,6.6,14.8,14.8s-6.6,14.8-14.8,14.8c-8.2,0-14.8-6.6-14.8-14.8
				S508.9,327.2,517.1,327.2 M517.1,315.2c-14.8,0-26.8,12-26.8,26.8s12,26.8,26.8,26.8c14.8,0,26.8-12,26.8-26.8
				S531.9,315.2,517.1,315.2L517.1,315.2z"/>
		</g>
	</g>
	<g class="st10">
		<line class="st12" x1="517.1" y1="672.6" x2="517.1" y2="476.8"/>
	</g>
	<path class="st14" d="M363.8,353.9c22.9-6.4,40.6-4.5,51.9-1.8c51.8,12.1,91.8,68.3,101.3,141.3"/>
	<path class="st14" d="M670.3,353.9c-22.9-6.4-40.6-4.5-51.9-1.8c-51.8,12.1-91.8,68.3-101.3,141.3"/>
	<path class="st14" d="M383.9,382.2c-7.3,2.8-28.5,12-43.1,35.2c-3.6,5.7-18.6,31-11.5,63.5c7,32.2,31.5,50.1,42.2,56.5
		c7.8,4.6,17.5,8.6,30.1,13.7c14.9,6.1,24.1,8.8,30.1,10.9c6.1,2.2,39.1,13.9,61.2,41.2c20.1,24.9,23.8,53.7,24.3,69.4"/>
	<path class="st14" d="M650.3,382.2c7.3,2.8,28.5,12,43.1,35.2c3.6,5.7,18.6,31,11.5,63.5c-7,32.2-31.5,50.1-42.2,56.5
		c-7.8,4.6-17.5,8.6-30.1,13.7c-14.9,6.1-24.1,8.8-30.1,10.9c-6.1,2.2-39.1,13.9-61.2,41.2c-20.1,24.9-23.8,53.7-24.3,69.4"/>
	<path class="st14" d="M383.9,382.2c-0.3,5.3-0.3,12.9,1.5,21.7c1.7,8.4,5.7,20.9,18.7,38.1c8.6,11.4,20.8,21.8,44.7,41.9
		c19.1,16.1,25,20.2,35.7,31.7c8.1,8.8,14.7,16,20.7,27c9.2,17.1,11.5,33.6,12,44.4"/>
	<path class="st14" d="M650.3,382.2c0.3,5.3,0.3,12.9-1.5,21.7c-1.7,8.4-5.7,20.9-18.7,38.1c-8.6,11.4-20.8,21.8-44.7,41.9
		c-19.1,16.1-25,20.2-35.7,31.7c-8.1,8.8-14.7,16-20.7,27c-9.2,17.1-11.5,33.6-12,44.4"/>
</g>
<g id="Warstwa_13">
	<g class="st0">
		<g class="st10">
			<circle class="st15" cx="517.1" cy="456.6" r="219.8"/>
			<g>
				<path class="st16" d="M723.6,557.3c14.9-30.5,23.2-64.7,23.2-100.9C746.6,329.8,643,226.7,516.5,227
					C390,227.3,287.5,330,287.5,456.6c0,36.1,8.3,70.3,23.2,100.7l163.8,82.5l-11.7,28.3c-2.3,5.7,1.1,12,7,13.3
					c15.3,3.2,31.1,4.9,47.3,4.9c16.2,0,32-1.7,47.3-4.9c6-1.3,9.4-7.6,7-13.3l-11.7-28.3L723.6,557.3z"/>
			</g>
			<path class="st17" d="M602.6,562c5.9-2.1,15.2-4.9,30.1-10.9c12.6-5.1,22.3-9.1,30.1-13.7c10.8-6.4,35.3-24.3,42.2-56.5
				c7-32.5-8-57.8-11.5-63.5c-14.6-23.2-35.8-32.5-43.1-35.2c0.3,5.3,0.3,12.9-1.5,21.7c-1.7,8.4-5.7,20.9-18.7,38.1
				c-8.6,11.4-20.8,21.8-44.7,41.9c-19.1,16.1-25,20.2-35.7,31.7c-8.1,8.8-14.7,16-20.7,27c-9.2,17.1-11.5,33.6-12,44.4
				c-0.5-10.8-2.8-27.2-12-44.4c-5.9-11-12.6-18.3-20.7-27c-10.7-11.6-16.6-15.7-35.7-31.7c-23.9-20.2-36-30.5-44.7-41.9
				c-13-17.2-17-29.7-18.7-38.1c-1.8-8.8-1.8-16.4-1.5-21.7c-7.3,2.8-28.5,12-43.1,35.2c-3.6,5.7-18.6,31-11.5,63.5
				c7,32.2,31.5,50.1,42.2,56.5c7.8,4.6,17.5,8.6,30.1,13.7c14.9,6.1,24.1,8.8,30.1,10.9c6.1,2.2,39.1,13.9,61.2,41.2
				c20.1,24.9,23.8,53.7,24.3,69.4c0.6-15.8,4.2-44.5,24.3-69.4C563.5,575.9,596.4,564.2,602.6,562z"/>
			
				<radialGradient id="SVGID_00000084500241606020261230000012498414304807484332_" cx="517.0759" cy="527.3924" r="168.9388" fx="516.2756" fy="620.279" gradientUnits="userSpaceOnUse">
				<stop  offset="0.1748" style="stop-color:#FFD7B6"/>
				<stop  offset="0.3311" style="stop-color:#FFDEC2;stop-opacity:0.8218"/>
				<stop  offset="0.6133" style="stop-color:#FFF1E3;stop-opacity:0.5"/>
				<stop  offset="0.9513" style="stop-color:#FFFFFF;stop-opacity:0"/>
			</radialGradient>
			<path style="fill:url(#SVGID_00000084500241606020261230000012498414304807484332_);" d="M602.6,562c5.9-2.1,15.2-4.9,30.1-10.9
				c12.6-5.1,22.3-9.1,30.1-13.7c10.8-6.4,35.3-24.3,42.2-56.5c7-32.5-8-57.8-11.5-63.5c-14.6-23.2-35.8-32.5-43.1-35.2
				c0.3,5.3,0.3,12.9-1.5,21.7c-1.7,8.4-5.7,20.9-18.7,38.1c-8.6,11.4-20.8,21.8-44.7,41.9c-19.1,16.1-25,20.2-35.7,31.7
				c-8.1,8.8-14.7,16-20.7,27c-9.2,17.1-11.5,33.6-12,44.4c-0.5-10.8-2.8-27.2-12-44.4c-5.9-11-12.6-18.3-20.7-27
				c-10.7-11.6-16.6-15.7-35.7-31.7c-23.9-20.2-36-30.5-44.7-41.9c-13-17.2-17-29.7-18.7-38.1c-1.8-8.8-1.8-16.4-1.5-21.7
				c-7.3,2.8-28.5,12-43.1,35.2c-3.6,5.7-18.6,31-11.5,63.5c7,32.2,31.5,50.1,42.2,56.5c7.8,4.6,17.5,8.6,30.1,13.7
				c14.9,6.1,24.1,8.8,30.1,10.9c6.1,2.2,39.1,13.9,61.2,41.2c20.1,24.9,23.8,53.7,24.3,69.4c0.6-15.8,4.2-44.5,24.3-69.4
				C563.5,575.9,596.4,564.2,602.6,562z"/>
			<path class="st19" d="M490.3,342c0,14.8,12,26.8,26.8,26.8s26.8-12,26.8-26.8c0-14-10.7-25.4-24.3-26.7h-5
				C500.9,316.6,490.3,328,490.3,342z"/>
		</g>
		<g class="st10">
			<g>
				<path class="st11" d="M283.6,730.4h23c12.7,0,18.3,6.7,18.3,14.6c0,6.7-3.8,11.1-8.2,12.7c4,1.3,10.1,5.4,10.1,13.8
					c0,10.8-8.3,17.2-19.6,17.2h-23.6V730.4z M305.1,754.5c8,0,11.1-3.2,11.1-8.6c0-5-3.6-8.4-10.1-8.4h-14v17H305.1z M292.1,781.7
					H306c7.2,0,11.9-3.3,11.9-10.2c0-6-3.9-10-13.2-10h-12.6V781.7z"/>
				<path class="st11" d="M391.6,759.3c0,16.1-9.1,30.3-27.6,30.3c-17.4,0-27-13.3-27-30c0-16.7,9.9-30,27.7-30
					C381.2,729.6,391.6,741.9,391.6,759.3z M346,759.3c0,12.4,6.2,23,18.3,23c13.1,0,18.2-10.8,18.2-22.9c0-12.3-5.8-22.5-18.3-22.5
					C351.6,736.9,346,747.1,346,759.3z"/>
				<path class="st11" d="M456.7,759.3c0,16.1-9.1,30.3-27.6,30.3c-17.4,0-27-13.3-27-30c0-16.7,9.9-30,27.7-30
					C446.3,729.6,456.7,741.9,456.7,759.3z M411.1,759.3c0,12.4,6.2,23,18.3,23c13.1,0,18.2-10.8,18.2-22.9
					c0-12.3-5.8-22.5-18.3-22.5C416.7,736.9,411.1,747.1,411.1,759.3z"/>
				<path class="st11" d="M470.4,730.4h8.6v28.1c4.2-4.5,18.5-18.9,27.4-28.1H517L492.2,755l25.9,33.8h-10.5l-21.5-28.2l-7.2,6.6
					v21.6h-8.6V730.4z"/>
				<path class="st11" d="M545.9,763.5v7.4h-22.3v-7.4H545.9z"/>
				<path class="st11" d="M564.6,772.4c1.5,6.8,6.2,10.3,14.3,10.3c8.7,0,12.1-4,12.1-9.2c0-5.6-2.9-8.7-14.2-11.4
					c-14.1-3.4-18.8-8.3-18.8-16.5c0-8.9,6.6-16,19.8-16c14.2,0,20,8.1,20.8,15.9h-8.8c-1-4.9-4-9.1-12.3-9.1
					c-6.7,0-10.5,3-10.5,8.3c0,5.2,3.1,7.3,13.2,9.7c16.7,4,19.8,10.5,19.8,18.1c0,9.6-7.2,17-21.7,17c-14.7,0-21.3-7.9-22.5-17.2
					H564.6z"/>
				<path class="st11" d="M650.4,761.9h-28.8v19.5h31.7l-1.1,7.3h-39v-58.3h38.6v7.3h-30.2v16.8h28.8V761.9z"/>
				<path class="st11" d="M665.4,730.4h8.7v51h30.2l-1.1,7.3h-37.7V730.4z"/>
				<path class="st11" d="M714.7,730.4h38.1v7.3h-29.6v18.1H751v7.3h-27.7v25.6h-8.5V730.4z"/>
			</g>
		</g>
		<g class="st10">
			<g>
				<g>
					<path class="st11" d="M517.1,327.2c8.2,0,14.8,6.6,14.8,14.8s-6.6,14.8-14.8,14.8c-8.2,0-14.8-6.6-14.8-14.8
						S508.9,327.2,517.1,327.2 M517.1,315.2c-14.8,0-26.8,12-26.8,26.8s12,26.8,26.8,26.8c14.8,0,26.8-12,26.8-26.8
						S531.9,315.2,517.1,315.2L517.1,315.2z"/>
				</g>
			</g>
			<g>
				<line class="st12" x1="517.1" y1="672.6" x2="517.1" y2="476.8"/>
			</g>
			<path class="st12" d="M363.8,353.9c22.9-6.4,40.6-4.5,51.9-1.8c51.8,12.1,91.8,68.3,101.3,141.3"/>
			<path class="st12" d="M670.3,353.9c-22.9-6.4-40.6-4.5-51.9-1.8c-51.8,12.1-91.8,68.3-101.3,141.3"/>
			<path class="st12" d="M383.9,382.2c-7.3,2.8-28.5,12-43.1,35.2c-3.6,5.7-18.6,31-11.5,63.5c7,32.2,31.5,50.1,42.2,56.5
				c7.8,4.6,17.5,8.6,30.1,13.7c14.9,6.1,24.1,8.8,30.1,10.9c6.1,2.2,39.1,13.9,61.2,41.2c20.1,24.9,23.8,53.7,24.3,69.4"/>
			<path class="st12" d="M650.3,382.2c7.3,2.8,28.5,12,43.1,35.2c3.6,5.7,18.6,31,11.5,63.5c-7,32.2-31.5,50.1-42.2,56.5
				c-7.8,4.6-17.5,8.6-30.1,13.7c-14.9,6.1-24.1,8.8-30.1,10.9c-6.1,2.2-39.1,13.9-61.2,41.2c-20.1,24.9-23.8,53.7-24.3,69.4"/>
			<path class="st12" d="M383.9,382.2c-0.3,5.3-0.3,12.9,1.5,21.7c1.7,8.4,5.7,20.9,18.7,38.1c8.6,11.4,20.8,21.8,44.7,41.9
				c19.1,16.1,25,20.2,35.7,31.7c8.1,8.8,14.7,16,20.7,27c9.2,17.1,11.5,33.6,12,44.4"/>
			<path class="st12" d="M650.3,382.2c0.3,5.3,0.3,12.9-1.5,21.7c-1.7,8.4-5.7,20.9-18.7,38.1c-8.6,11.4-20.8,21.8-44.7,41.9
				c-19.1,16.1-25,20.2-35.7,31.7c-8.1,8.8-14.7,16-20.7,27c-9.2,17.1-11.5,33.6-12,44.4"/>
			<polyline class="st20" points="463.6,666 474.4,639.8 251.3,527.4 			"/>
			<polyline class="st20" points="570.5,666 559.7,639.8 782.9,527.4 			"/>
		</g>
	</g>
	<g>
		<g class="st0">
			<path class="st21" d="M155.5,846.5h35.6c19.6,0,28.4,10.3,28.4,22.7c0,10.4-5.9,17.2-12.7,19.7c6.3,2.1,15.6,8.4,15.6,21.4
				c0,16.7-12.8,26.6-30.4,26.6h-36.5V846.5z M188.8,883.7c12.4,0,17.2-5,17.2-13.3c0-7.7-5.6-13-15.6-13h-21.8v26.3H188.8z
				 M168.7,926h21.4c11.2,0,18.5-5.2,18.5-15.8c0-9.3-6-15.6-20.4-15.6h-19.6V926z"/>
			<path class="st21" d="M322.7,891.2c0,24.9-14.2,47-42.8,47c-26.9,0-41.8-20.6-41.8-46.5c0-25.9,15.4-46.5,42.9-46.5
				C306.6,845.2,322.7,864.2,322.7,891.2z M252.1,891.3c0,19.2,9.6,35.6,28.4,35.6c20.3,0,28.2-16.8,28.2-35.5
				c0-19-9-34.9-28.3-34.9C260.8,856.5,252.1,872.3,252.1,891.3z"/>
			<path class="st21" d="M423.5,891.2c0,24.9-14.2,47-42.8,47c-26.9,0-41.8-20.6-41.8-46.5c0-25.9,15.4-46.5,42.9-46.5
				C407.5,845.2,423.5,864.2,423.5,891.2z M353,891.3c0,19.2,9.6,35.6,28.4,35.6c20.3,0,28.2-16.8,28.2-35.5c0-19-9-34.9-28.3-34.9
				C361.6,856.5,353,872.3,353,891.3z"/>
			<path class="st21" d="M444.7,846.5H458v43.6c6.6-7,28.7-29.2,42.4-43.6h16.5l-38.4,38l40.2,52.4h-16.2l-33.3-43.7L458,903.4v33.5
				h-13.3V846.5z"/>
			<path class="st21" d="M561.8,897.8v11.5h-34.6v-11.5H561.8z"/>
			<path class="st21" d="M590.6,911.5c2.4,10.5,9.6,16,22.2,16c13.4,0,18.8-6.1,18.8-14.3c0-8.7-4.4-13.5-22-17.7
				c-21.9-5.3-29.1-12.9-29.1-25.5c0-13.9,10.3-24.8,30.7-24.8c22,0,31,12.5,32.2,24.6h-13.6c-1.5-7.6-6.2-14.1-19-14.1
				c-10.4,0-16.3,4.6-16.3,12.8c0,8.1,4.9,11.3,20.5,15c25.9,6.3,30.6,16.2,30.6,28.1c0,14.9-11.1,26.3-33.6,26.3
				c-22.8,0-33-12.2-34.9-26.6H590.6z"/>
			<path class="st21" d="M723.6,895.2H679v30.3h49l-1.7,11.4h-60.5v-90.4h59.8v11.4H679v26h44.6V895.2z"/>
			<path class="st21" d="M746.8,846.5h13.4v79h46.7l-1.8,11.4h-58.4V846.5z"/>
			<path class="st21" d="M823.2,846.5h59v11.4h-45.8v28h43v11.4h-43v39.7h-13.2V846.5z"/>
		</g>
	</g>
	<g>
		<g class="st0">
			<path class="st21" d="M132.8,922.5c-2.3,0-4-0.6-5.3-1.8c-1.2-1.2-1.8-3-1.8-5.3v-75.3c0-2.3,0.6-4,1.8-5.3
				c1.2-1.2,3-1.8,5.3-1.8H163c6.2,0,11.4,0.9,15.8,2.8c4.4,1.9,7.7,4.5,10,8c2.3,3.5,3.5,7.7,3.5,12.6c0,5.4-1.6,10-4.8,13.7
				c-3.2,3.7-7.6,6.2-13.1,7.5v-1.9c6.3,0.8,11.2,3.2,14.7,7c3.6,3.9,5.3,8.9,5.3,15c0,8-2.6,14.1-7.9,18.4
				c-5.3,4.3-12.6,6.4-22.1,6.4H132.8z M138.4,872.1H161c6.1,0,10.7-1.2,13.8-3.7c3.1-2.5,4.7-6.1,4.7-10.8c0-4.7-1.6-8.3-4.7-10.8
				c-3.1-2.5-7.7-3.7-13.8-3.7h-22.6V872.1z M138.4,912.3H163c6.4,0,11-1.2,14.1-3.7c3-2.5,4.6-6.3,4.6-11.4c0-5.1-1.5-8.8-4.6-11.3
				c-3-2.5-7.7-3.7-14.1-3.7h-24.6V912.3z"/>
			<path class="st21" d="M260.1,923.6c-8.5,0-15.9-1.9-22.2-5.7c-6.3-3.8-11.2-9.1-14.6-16c-3.4-6.9-5.1-15-5.1-24.3
				c0-7,1-13.4,2.9-19c1.9-5.6,4.7-10.5,8.4-14.5c3.6-4,8-7.1,13.2-9.2c5.2-2.1,11-3.2,17.4-3.2c8.6,0,16,1.9,22.2,5.6
				c6.3,3.7,11.1,9,14.5,15.9c3.4,6.9,5.1,14.9,5.1,24.3c0,7-1,13.4-2.9,19c-1.9,5.7-4.8,10.5-8.4,14.6c-3.7,4.1-8.1,7.2-13.3,9.3
				C272.2,922.6,266.4,923.6,260.1,923.6z M260.1,912.2c5.9,0,11-1.4,15.2-4.1c4.2-2.7,7.4-6.6,9.7-11.8c2.2-5.2,3.4-11.4,3.4-18.7
				c0-10.9-2.5-19.4-7.4-25.4c-4.9-6-11.9-9-20.8-9c-5.9,0-11,1.3-15.2,4s-7.4,6.6-9.7,11.7c-2.2,5.2-3.4,11.4-3.4,18.7
				c0,10.8,2.5,19.3,7.4,25.4C244.3,909.2,251.2,912.2,260.1,912.2z"/>
			<path class="st21" d="M367.4,923.6c-8.5,0-15.9-1.9-22.2-5.7c-6.3-3.8-11.2-9.1-14.6-16c-3.4-6.9-5.1-15-5.1-24.3
				c0-7,1-13.4,2.9-19c1.9-5.6,4.7-10.5,8.4-14.5c3.6-4,8-7.1,13.2-9.2c5.2-2.1,11-3.2,17.4-3.2c8.6,0,16,1.9,22.2,5.6
				c6.3,3.7,11.1,9,14.5,15.9c3.4,6.9,5.1,14.9,5.1,24.3c0,7-1,13.4-2.9,19c-1.9,5.7-4.8,10.5-8.4,14.6c-3.7,4.1-8.1,7.2-13.3,9.3
				C379.5,922.6,373.7,923.6,367.4,923.6z M367.4,912.2c5.9,0,11-1.4,15.2-4.1c4.2-2.7,7.4-6.6,9.7-11.8c2.2-5.2,3.4-11.4,3.4-18.7
				c0-10.9-2.5-19.4-7.4-25.4c-4.9-6-11.9-9-20.8-9c-5.9,0-11,1.3-15.2,4s-7.4,6.6-9.7,11.7c-2.2,5.2-3.4,11.4-3.4,18.7
				c0,10.8,2.5,19.3,7.4,25.4C351.6,909.2,358.5,912.2,367.4,912.2z"/>
			<path class="st21" d="M442.4,923.4c-2.1,0-3.7-0.6-4.9-1.8s-1.7-2.8-1.7-5v-78c0-2.2,0.6-3.9,1.7-5c1.1-1.1,2.8-1.7,4.9-1.7
				c2.1,0,3.7,0.6,4.9,1.7c1.1,1.1,1.7,2.8,1.7,5v34.5h0.3l39-37.7c1.3-1.2,2.5-2.1,3.6-2.6c1.1-0.5,2.4-0.8,3.9-0.8
				c1.9,0,3.4,0.5,4.3,1.5c0.9,1,1.2,2.1,1.1,3.5c-0.2,1.4-0.9,2.7-2.2,3.9l-40.5,38.6l0.3-6.5l42.2,40.6c1.5,1.4,2.3,2.9,2.4,4.4
				c0.1,1.5-0.4,2.8-1.4,3.7c-1,1-2.5,1.5-4.3,1.5c-1.7,0-3-0.3-4.1-1c-1-0.7-2.2-1.7-3.6-2.9l-40.6-38.7H449v35.9
				c0,2.1-0.6,3.8-1.7,5C446.3,922.8,444.6,923.4,442.4,923.4z"/>
			<path class="st21" d="M529.3,893.8c-1.5,0-2.8-0.5-3.8-1.5c-1-1-1.5-2.2-1.5-3.7c0-1.5,0.5-2.8,1.5-3.7c1-1,2.3-1.5,3.8-1.5h27.9
				c1.4,0,2.7,0.5,3.7,1.5c1,1,1.5,2.2,1.5,3.7c0,1.4-0.5,2.7-1.5,3.7c-1,1-2.2,1.5-3.7,1.5H529.3z"/>
			<path class="st21" d="M619.6,923.6c-3.9,0-7.7-0.3-11.4-0.9c-3.7-0.6-7.2-1.5-10.5-2.7c-3.3-1.2-6.3-2.7-8.9-4.5
				c-1.3-0.9-2.1-2-2.6-3.2c-0.5-1.2-0.6-2.3-0.4-3.5c0.2-1.1,0.7-2.1,1.5-3c0.8-0.8,1.7-1.4,2.8-1.6c1.1-0.2,2.3,0.1,3.7,1.1
				c3.8,2.5,7.8,4.3,12.1,5.4c4.2,1.1,8.8,1.7,13.8,1.7c7.2,0,12.5-1.3,15.9-3.9c3.4-2.6,5.1-5.9,5.1-10.1c0-3.4-1.2-6.1-3.7-8.1
				c-2.5-2-6.6-3.6-12.3-4.8l-13.6-2.8c-8-1.7-14-4.5-18-8.4c-3.9-3.9-5.9-9.1-5.9-15.7c0-4,0.8-7.6,2.5-10.9s4-6.2,6.9-8.6
				c3-2.4,6.5-4.3,10.7-5.5c4.1-1.3,8.7-1.9,13.6-1.9c5.2,0,10.2,0.7,14.8,2c4.6,1.4,8.7,3.4,12.4,6.2c1.1,0.8,1.8,1.7,2.2,2.9
				c0.4,1.1,0.5,2.3,0.3,3.4c-0.2,1.1-0.7,2-1.5,2.8c-0.8,0.8-1.7,1.2-2.9,1.3c-1.2,0.1-2.5-0.3-3.9-1.2c-3.3-2.2-6.7-3.8-10.1-4.8
				c-3.4-1-7.2-1.5-11.4-1.5c-4.1,0-7.8,0.6-10.9,1.9c-3.1,1.3-5.5,3-7.1,5.3c-1.7,2.3-2.5,5-2.5,8.1c0,3.6,1.1,6.4,3.4,8.5
				c2.3,2.1,6.1,3.7,11.4,4.8l13.5,2.8c8.5,1.8,14.8,4.5,18.9,8.3c4.1,3.7,6.2,8.7,6.2,14.9c0,4-0.8,7.6-2.4,10.7
				c-1.6,3.2-3.9,5.9-6.9,8.2c-3,2.3-6.5,4-10.7,5.3C629.6,923,624.8,923.6,619.6,923.6z"/>
			<path class="st21" d="M684.7,922.5c-2.3,0-4-0.6-5.3-1.8c-1.2-1.2-1.8-3-1.8-5.3v-75.3c0-2.3,0.6-4,1.8-5.3
				c1.2-1.2,3-1.8,5.3-1.8h46.4c1.8,0,3.1,0.4,4.1,1.3c0.9,0.9,1.4,2.2,1.4,3.9c0,1.8-0.5,3.1-1.4,4.1c-0.9,0.9-2.3,1.4-4.1,1.4
				h-40.8v28.1h38c1.9,0,3.2,0.5,4.1,1.4c0.9,0.9,1.3,2.2,1.3,3.9c0,1.8-0.4,3.1-1.3,4c-0.9,0.9-2.3,1.3-4.1,1.3h-38v29.5h40.8
				c1.8,0,3.1,0.5,4.1,1.4c0.9,0.9,1.4,2.2,1.4,3.9c0,1.8-0.5,3.1-1.4,4c-0.9,0.9-2.3,1.3-4.1,1.3H684.7z"/>
			<path class="st21" d="M768.1,922.5c-2.1,0-3.8-0.6-5-1.8c-1.2-1.2-1.8-2.8-1.8-5v-76.6c0-2.2,0.6-3.9,1.7-5
				c1.1-1.1,2.8-1.7,4.9-1.7c2.1,0,3.7,0.6,4.9,1.7c1.1,1.1,1.7,2.8,1.7,5v72h39.4c1.9,0,3.3,0.5,4.3,1.5c1,1,1.5,2.3,1.5,4.1
				s-0.5,3.2-1.5,4.2c-1,1-2.5,1.5-4.3,1.5H768.1z"/>
			<path class="st21" d="M847.3,923.4c-2.2,0-3.9-0.6-5.1-1.8c-1.2-1.2-1.8-2.9-1.8-5.2v-76.3c0-2.3,0.6-4,1.8-5.3
				c1.2-1.2,3-1.8,5.3-1.8h45.2c1.9,0,3.2,0.4,4.1,1.3c0.9,0.9,1.3,2.2,1.3,3.9c0,1.8-0.4,3.1-1.3,4.1c-0.9,0.9-2.3,1.4-4.1,1.4
				h-39.1v28.6h36.6c1.7,0,3,0.4,4,1.3c1,0.9,1.5,2.2,1.5,3.9c0,1.8-0.5,3.1-1.5,4.1c-1,0.9-2.3,1.4-4,1.4h-36.6v33.5
				C853.5,921,851.4,923.4,847.3,923.4z"/>
		</g>
	</g>
	<g class="st0">
		<circle class="st15" cx="512" cy="422.1" r="340.4"/>
		<g class="st10">
			<path class="st16" d="M831.8,577.9c23-47.2,36-100.2,35.9-156.3C867.4,225.7,707.1,66,511.1,66.5C315.1,67,156.4,226,156.4,422.1
				c0,55.9,12.9,108.8,35.9,155.9L446,705.7l-18.1,43.9c-3.6,8.8,1.6,18.6,10.9,20.5c23.6,5,48.2,7.6,73.3,7.6
				c25.1,0,49.6-2.6,73.2-7.6c9.3-1.9,14.5-11.8,10.9-20.5L578,705.7L831.8,577.9z"/>
		</g>
		<path class="st9" d="M644.4,585.3c9.2-3.3,23.5-7.6,46.6-16.9c19.4-7.9,34.6-14.1,46.6-21.2c16.7-9.9,54.6-37.7,65.4-87.5
			c10.9-50.3-12.4-89.6-17.9-98.3c-22.6-36-55.5-50.3-66.8-54.6c0.5,8.2,0.5,19.9-2.3,33.6c-2.7,13-8.8,32.3-28.9,59
			c-13.4,17.7-32.2,33.7-69.2,64.9c-29.5,24.9-38.7,31.2-55.3,49.2c-12.5,13.6-22.8,24.9-32,41.9c-14.3,26.5-17.8,52-18.6,68.7
			c-0.8-16.7-4.3-42.2-18.6-68.7c-9.2-17-19.5-28.3-32-41.9c-16.6-17.9-25.8-24.3-55.3-49.2c-37-31.2-55.8-47.2-69.2-64.9
			c-20.2-26.7-26.3-46.1-28.9-59c-2.8-13.7-2.8-25.5-2.3-33.6c-11.3,4.3-44.2,18.6-66.8,54.6c-5.5,8.8-28.7,48-17.9,98.3
			c10.8,49.9,48.7,77.6,65.4,87.5c12,7.1,27.1,13.3,46.6,21.2c23,9.4,37.4,13.7,46.6,16.9c9.5,3.4,60.6,21.5,94.7,63.7
			c31.2,38.6,36.8,83.1,37.7,107.5c0.9-24.4,6.5-69,37.7-107.5C583.8,606.8,634.9,588.7,644.4,585.3z"/>
		
			<radialGradient id="SVGID_00000062912526540348739460000009012611179163694513_" cx="512" cy="531.6839" r="261.6382" fx="510.7604" fy="675.5388" gradientUnits="userSpaceOnUse">
			<stop  offset="0.1748" style="stop-color:#FFD7B6"/>
			<stop  offset="0.3311" style="stop-color:#FFDEC2;stop-opacity:0.8218"/>
			<stop  offset="0.6133" style="stop-color:#FFF1E3;stop-opacity:0.5"/>
			<stop  offset="0.9513" style="stop-color:#FFFFFF;stop-opacity:0"/>
		</radialGradient>
		<path style="display:inline;fill:url(#SVGID_00000062912526540348739460000009012611179163694513_);" d="M644.4,585.3
			c9.2-3.3,23.5-7.6,46.6-16.9c19.4-7.9,34.6-14.1,46.6-21.2c16.7-9.9,54.6-37.7,65.4-87.5c10.9-50.3-12.4-89.6-17.9-98.3
			c-22.6-36-55.5-50.3-66.8-54.6c0.5,8.2,0.5,19.9-2.3,33.6c-2.7,13-8.8,32.3-28.9,59c-13.4,17.7-32.2,33.7-69.2,64.9
			c-29.5,24.9-38.7,31.2-55.3,49.2c-12.5,13.6-22.8,24.9-32,41.9c-14.3,26.5-17.8,52-18.6,68.7c-0.8-16.7-4.3-42.2-18.6-68.7
			c-9.2-17-19.5-28.3-32-41.9c-16.6-17.9-25.8-24.3-55.3-49.2c-37-31.2-55.8-47.2-69.2-64.9c-20.2-26.7-26.3-46.1-28.9-59
			c-2.8-13.7-2.8-25.5-2.3-33.6c-11.3,4.3-44.2,18.6-66.8,54.6c-5.5,8.8-28.7,48-17.9,98.3c10.8,49.9,48.7,77.6,65.4,87.5
			c12,7.1,27.1,13.3,46.6,21.2c23,9.4,37.4,13.7,46.6,16.9c9.5,3.4,60.6,21.5,94.7,63.7c31.2,38.6,36.8,83.1,37.7,107.5
			c0.9-24.4,6.5-69,37.7-107.5C583.8,606.8,634.9,588.7,644.4,585.3z"/>
		<path class="st5" d="M470.5,244.6c0,22.9,18.6,41.5,41.5,41.5s41.5-18.6,41.5-41.5c0-21.6-16.5-39.4-37.6-41.3h-7.8
			C487,205.2,470.5,222.9,470.5,244.6z"/>
		<g class="st10">
			<g>
				<path class="st11" d="M512,215c16.3,0,29.5,13.2,29.5,29.5s-13.2,29.5-29.5,29.5s-29.5-13.2-29.5-29.5S495.7,215,512,215
					 M512,203c-22.9,0-41.5,18.6-41.5,41.5s18.6,41.5,41.5,41.5s41.5-18.6,41.5-41.5S534.9,203,512,203L512,203z"/>
			</g>
		</g>
		<g class="st10">
			<line class="st12" x1="512" y1="756.6" x2="512" y2="453.4"/>
		</g>
		<path class="st14" d="M274.7,263c35.5-9.9,62.9-6.9,80.5-2.8C435.4,279,497.3,366.1,512,479"/>
		<path class="st14" d="M749.3,263c-35.5-9.9-62.9-6.9-80.5-2.8C588.6,279,526.7,366.1,512,479"/>
		<path class="st14" d="M305.7,306.8c-11.3,4.3-44.2,18.6-66.8,54.6c-5.5,8.8-28.7,48-17.9,98.3c10.8,49.9,48.7,77.6,65.4,87.5
			c12,7.1,27.1,13.3,46.6,21.2c23,9.4,37.4,13.7,46.6,16.9c9.5,3.4,60.6,21.5,94.7,63.7c31.2,38.6,36.8,83.1,37.7,107.5"/>
		<path class="st14" d="M718.3,306.8c11.3,4.3,44.2,18.6,66.8,54.6c5.5,8.8,28.7,48,17.9,98.3c-10.8,49.9-48.7,77.6-65.4,87.5
			c-12,7.1-27.1,13.3-46.6,21.2c-23,9.4-37.4,13.7-46.6,16.9c-9.5,3.4-60.6,21.5-94.7,63.7c-31.2,38.6-36.8,83.1-37.7,107.5"/>
		<path class="st14" d="M305.7,306.8c-0.5,8.2-0.5,19.9,2.3,33.6c2.7,13,8.8,32.3,28.9,59c13.4,17.7,32.2,33.7,69.2,64.9
			c29.5,24.9,38.7,31.2,55.3,49.2c12.5,13.6,22.8,24.9,32,41.9c14.3,26.5,17.8,52,18.6,68.7"/>
		<path class="st14" d="M718.3,306.8c0.5,8.2,0.5,19.9-2.3,33.6c-2.7,13-8.8,32.3-28.9,59c-13.4,17.7-32.2,33.7-69.2,64.9
			c-29.5,24.9-38.7,31.2-55.3,49.2c-12.5,13.6-22.8,24.9-32,41.9c-14.3,26.5-17.8,52-18.6,68.7"/>
		<polyline class="st23" points="429.2,746.3 446,705.7 100.4,531.7 		"/>
		<polyline class="st23" points="594.8,746.3 578,705.7 923.6,531.7 		"/>
	</g>
	<g>
		<circle class="st24" cx="512" cy="512" r="407.3"/>
		<g class="st0">
			<path class="st7" d="M894.7,698.5c27.6-56.5,43-120,42.9-187.1C937.3,277,745.4,85.8,510.9,86.4C276.4,87,86.5,277.3,86.5,512
				c0,66.9,15.5,130.2,43,186.5L433,851.4l-21.7,52.5c-4.3,10.5,2,22.3,13.1,24.6c28.3,5.9,57.6,9.1,87.7,9.1c30,0,59.3-3.1,87.6-9
				c11.1-2.3,17.4-14.1,13.1-24.6L591,851.4L894.7,698.5z"/>
		</g>
		<path class="st25" d="M670.4,707.3c11-3.9,28.2-9.1,55.7-20.3c23.3-9.5,41.4-16.8,55.7-25.3c19.9-11.8,65.4-45.1,78.3-104.7
			c13-60.2-14.8-107.2-21.4-117.7c-27-43.1-66.4-60.1-79.9-65.3c0.6,9.8,0.6,23.9-2.7,40.3c-3.2,15.5-10.5,38.7-34.6,70.7
			c-16,21.2-38.5,40.3-82.8,77.7c-35.3,29.8-46.3,37.4-66.2,58.8c-15,16.2-27.3,29.7-38.3,50.1c-17.1,31.7-21.3,62.2-22.3,82.2
			c-0.9-20-5.2-50.5-22.3-82.2c-11-20.4-23.3-33.9-38.3-50.1c-19.8-21.5-30.8-29-66.2-58.8c-44.3-37.4-66.7-56.5-82.8-77.7
			c-24.1-31.9-31.4-55.1-34.6-70.7c-3.3-16.4-3.4-30.5-2.7-40.3c-13.5,5.2-52.9,22.2-79.9,65.3c-6.6,10.5-34.4,57.5-21.4,117.7
			c12.9,59.7,58.3,92.9,78.3,104.7c14.4,8.5,32.5,15.9,55.7,25.3c27.6,11.2,44.7,16.4,55.7,20.3c11.4,4,72.5,25.7,113.4,76.3
			C504.2,829.7,511,883,512,912.2c1-29.2,7.8-82.5,45.1-128.6C598,733,659.1,711.3,670.4,707.3z"/>
		
			<radialGradient id="SVGID_00000082332947750047811140000011750013087551579022_" cx="511.9999" cy="643.1204" r="313.0791" fx="510.5167" fy="815.2587" gradientUnits="userSpaceOnUse">
			<stop  offset="0.1748" style="stop-color:#FFD7B6"/>
			<stop  offset="0.3311" style="stop-color:#FFDEC2;stop-opacity:0.8218"/>
			<stop  offset="0.6133" style="stop-color:#FFF1E3;stop-opacity:0.5"/>
			<stop  offset="0.9513" style="stop-color:#FFFFFF;stop-opacity:0"/>
		</radialGradient>
		<path style="display:none;fill:url(#SVGID_00000082332947750047811140000011750013087551579022_);" d="M670.4,707.3
			c11-3.9,28.2-9.1,55.7-20.3c23.3-9.5,41.4-16.8,55.7-25.3c19.9-11.8,65.4-45.1,78.3-104.7c13-60.2-14.8-107.2-21.4-117.7
			c-27-43.1-66.4-60.1-79.9-65.3c0.6,9.8,0.6,23.9-2.7,40.3c-3.2,15.5-10.5,38.7-34.6,70.7c-16,21.2-38.5,40.3-82.8,77.7
			c-35.3,29.8-46.3,37.4-66.2,58.8c-15,16.2-27.3,29.7-38.3,50.1c-17.1,31.7-21.3,62.2-22.3,82.2c-0.9-20-5.2-50.5-22.3-82.2
			c-11-20.4-23.3-33.9-38.3-50.1c-19.8-21.5-30.8-29-66.2-58.8c-44.3-37.4-66.7-56.5-82.8-77.7c-24.1-31.9-31.4-55.1-34.6-70.7
			c-3.3-16.4-3.4-30.5-2.7-40.3c-13.5,5.2-52.9,22.2-79.9,65.3c-6.6,10.5-34.4,57.5-21.4,117.7c12.9,59.7,58.3,92.9,78.3,104.7
			c14.4,8.5,32.5,15.9,55.7,25.3c27.6,11.2,44.7,16.4,55.7,20.3c11.4,4,72.5,25.7,113.4,76.3C504.2,829.7,511,883,512,912.2
			c1-29.2,7.8-82.5,45.1-128.6C598,733,659.1,711.3,670.4,707.3z"/>
		<path class="st3" d="M462.3,299.5c0,27.4,22.2,49.7,49.7,49.7c27.4,0,49.7-22.2,49.7-49.7c0-25.9-19.8-47.1-45-49.5h-9.3
			C482.1,252.4,462.3,273.7,462.3,299.5z"/>
		<path class="st11" d="M512,264.2c19.5,0,35.3,15.8,35.3,35.3c0,19.5-15.8,35.3-35.3,35.3c-19.5,0-35.3-15.8-35.3-35.3
			C476.7,280.1,492.5,264.2,512,264.2 M512,249.9c-27.4,0-49.7,22.2-49.7,49.7c0,27.4,22.2,49.7,49.7,49.7
			c27.4,0,49.7-22.2,49.7-49.7C561.7,272.1,539.4,249.9,512,249.9L512,249.9z"/>
		<path class="st11" d="M512,919.4c-4,0-7.2-3.2-7.2-7.2V549.5c0-4,3.2-7.2,7.2-7.2s7.2,3.2,7.2,7.2v362.8
			C519.2,916.2,516,919.4,512,919.4z"/>
		<path class="st11" d="M512,587.2c-3.6,0-6.6-2.6-7.1-6.3c-17.4-133.5-89-233.9-182.2-255.7c-29.2-6.8-60.4-5.7-92.7,3.3
			c-3.8,1.1-7.8-1.2-8.8-5s1.2-7.8,5-8.8c34.7-9.7,68.3-10.8,99.8-3.5c48.8,11.4,92.8,43,127.5,91.5
			c34.2,47.8,56.9,108.8,65.7,176.4c0.5,3.9-2.3,7.5-6.2,8C512.6,587.2,512.3,587.2,512,587.2z"/>
		<path class="st11" d="M512,587.2c-0.3,0-0.6,0-0.9-0.1c-3.9-0.5-6.7-4.1-6.2-8c8.8-67.6,31.6-128.6,65.7-176.4
			c34.6-48.4,78.7-80.1,127.5-91.5c31.5-7.4,65.1-6.2,99.8,3.5c3.8,1.1,6.1,5,5,8.8s-5,6.1-8.8,5c-32.4-9-63.5-10.1-92.7-3.3
			C608.1,347.1,536.5,447.5,519.1,581C518.6,584.6,515.6,587.2,512,587.2z"/>
		<path class="st11" d="M512,919.4c-3.8,0-7-3-7.2-6.9c-1.2-33.7-9.7-82.6-43.5-124.4c-34.4-42.6-83.8-64.7-110.2-74
			c-2.7-0.9-5.7-2-9.1-3.1c-10.9-3.7-25.9-8.7-46.9-17.3c-23.4-9.5-41.9-17-56.7-25.8c-20-11.8-68-46.2-81.6-109.4
			c-12.7-58.7,11.4-105.6,22.3-123c26.1-41.5,63.5-60.6,83.5-68.2c3.7-1.4,7.9,0.4,9.3,4.1c1.4,3.7-0.4,7.9-4.1,9.3
			c-18.3,7-52.6,24.4-76.4,62.4c-10,15.9-32,58.8-20.5,112.3c12.5,57.7,56.5,89.2,74.9,100.1c13.9,8.2,31.9,15.6,54.7,24.8
			c20.7,8.4,35.4,13.4,46.1,17c3.5,1.2,6.6,2.2,9.3,3.2c27.8,9.9,79.9,33.2,116.5,78.5c36.3,44.9,45.4,97.1,46.7,132.9
			c0.1,4-3,7.3-6.9,7.4C512.2,919.4,512.1,919.4,512,919.4z"/>
		<path class="st11" d="M512,919.4c-0.1,0-0.2,0-0.3,0c-4-0.1-7.1-3.5-6.9-7.4c1.3-35.8,10.4-88,46.7-132.9
			c36.7-45.4,88.7-68.7,116.5-78.5c2.7-1,5.8-2,9.3-3.2c10.7-3.6,25.5-8.6,46.1-17c22.9-9.3,40.9-16.6,54.8-24.9
			c18.4-10.9,62.4-42.4,74.9-100.1c11.6-53.5-10.5-96.4-20.5-112.3c-23.9-38-58.1-55.4-76.4-62.4c-3.7-1.4-5.6-5.6-4.1-9.3
			c1.4-3.7,5.6-5.6,9.3-4.1c20,7.6,57.4,26.7,83.5,68.2c10.9,17.4,35,64.3,22.3,123c-13.7,63.2-61.6,97.5-81.6,109.4
			c-14.8,8.8-33.3,16.3-56.7,25.8c-21.1,8.6-36,13.6-47,17.3c-3.4,1.2-6.4,2.2-9.1,3.1c-26.4,9.4-75.7,31.4-110.2,74
			c-33.8,41.8-42.3,90.7-43.5,124.4C519,916.4,515.9,919.4,512,919.4z"/>
		<path class="st11" d="M512,760.9c-3.8,0-7-3-7.2-6.8c-1.3-28.6-8.5-55.2-21.4-79.1c-10.8-20-23-33.3-37.2-48.6
			c-14.7-16-24.4-24-43.8-40.1c-6.2-5.1-13.2-11-21.7-18.1c-43.2-36.5-67-56.6-83.9-78.9c-25.7-34-32.8-58.3-35.9-73.5
			c-2.8-13.7-3.8-27.9-2.9-42.1c0.3-4,3.7-7,7.6-6.7c4,0.3,7,3.7,6.7,7.6c-0.8,13,0.1,25.9,2.6,38.4c2.8,13.9,9.4,36.1,33.3,67.8
			c15.2,20.2,36,38,81.7,76.5c8.4,7.1,15.4,12.9,21.6,18.1c19.8,16.5,29.8,24.7,45.2,41.4c14.2,15.4,27.7,30,39.3,51.6
			c13.9,25.8,21.7,54.5,23.1,85.3c0.2,4-2.9,7.3-6.8,7.5C512.2,760.9,512.1,760.9,512,760.9z"/>
		<path class="st11" d="M512,760.9c-0.1,0-0.2,0-0.3,0c-4-0.2-7-3.5-6.8-7.5c1.4-30.8,9.2-59.5,23.1-85.3
			c11.6-21.6,25.1-36.1,39.3-51.6c15.4-16.7,25.3-24.9,45.2-41.4c6.2-5.1,13.2-10.9,21.6-18.1c45.6-38.5,66.4-56.4,81.7-76.5
			c23.9-31.7,30.5-53.8,33.3-67.8c2.6-12.5,3.4-25.4,2.6-38.4c-0.3-4,2.8-7.4,6.7-7.6c3.9-0.3,7.4,2.8,7.6,6.7
			c0.9,14.2-0.1,28.4-2.9,42.1c-3.1,15.3-10.3,39.6-35.9,73.5c-16.8,22.3-40.6,42.4-83.9,78.9c-8.5,7.2-15.5,13-21.7,18.1
			c-19.3,16.1-29,24.1-43.8,40.1c-14.2,15.4-26.5,28.7-37.2,48.6c-12.9,23.9-20.1,50.5-21.4,79.1C519,757.9,515.8,760.9,512,760.9z"
			/>
		<path class="st11" d="M413,907.1c-0.9,0-1.8-0.2-2.7-0.5c-3.7-1.5-5.4-5.7-3.9-9.4l17.5-42.4L16.2,649.5c-3.5-1.8-5-6.1-3.2-9.6
			c1.8-3.5,6.1-5,9.6-3.2L436.2,845c3.4,1.7,4.8,5.7,3.4,9.2l-20,48.5C418.4,905.4,415.8,907.1,413,907.1z"/>
		<path class="st11" d="M611,907.1c-2.8,0-5.5-1.7-6.6-4.4l-20-48.5c-1.4-3.5,0.1-7.5,3.4-9.2l413.6-208.3c3.5-1.8,7.9-0.4,9.6,3.2
			c1.8,3.5,0.4,7.9-3.2,9.6L600.2,854.8l17.5,42.4c1.5,3.7-0.2,7.9-3.9,9.4C612.9,906.9,612,907.1,611,907.1z"/>
	</g>
	<g class="st0">
		<g class="st10">
			<g>
				<path class="st11" d="M517.1,327.2c8.2,0,14.8,6.6,14.8,14.8s-6.6,14.8-14.8,14.8c-8.2,0-14.8-6.6-14.8-14.8
					S508.9,327.2,517.1,327.2 M517.1,315.2c-14.8,0-26.8,12-26.8,26.8s12,26.8,26.8,26.8c14.8,0,26.8-12,26.8-26.8
					S531.9,315.2,517.1,315.2L517.1,315.2z"/>
			</g>
		</g>
		<g class="st10">
			<line class="st12" x1="517.1" y1="672.6" x2="517.1" y2="476.8"/>
		</g>
		<path class="st14" d="M363.8,353.9c22.9-6.4,40.6-4.5,51.9-1.8c51.8,12.1,91.8,68.3,101.3,141.3"/>
		<path class="st14" d="M670.3,353.9c-22.9-6.4-40.6-4.5-51.9-1.8c-51.8,12.1-91.8,68.3-101.3,141.3"/>
		<path class="st14" d="M383.9,382.2c-7.3,2.8-28.5,12-43.1,35.2c-3.6,5.7-18.6,31-11.5,63.5c7,32.2,31.5,50.1,42.2,56.5
			c7.8,4.6,17.5,8.6,30.1,13.7c14.9,6.1,24.1,8.8,30.1,10.9c6.1,2.2,39.1,13.9,61.2,41.2c20.1,24.9,23.8,53.7,24.3,69.4"/>
		<path class="st14" d="M650.3,382.2c7.3,2.8,28.5,12,43.1,35.2c3.6,5.7,18.6,31,11.5,63.5c-7,32.2-31.5,50.1-42.2,56.5
			c-7.8,4.6-17.5,8.6-30.1,13.7c-14.9,6.1-24.1,8.8-30.1,10.9c-6.1,2.2-39.1,13.9-61.2,41.2c-20.1,24.9-23.8,53.7-24.3,69.4"/>
		<path class="st14" d="M383.9,382.2c-0.3,5.3-0.3,12.9,1.5,21.7c1.7,8.4,5.7,20.9,18.7,38.1c8.6,11.4,20.8,21.8,44.7,41.9
			c19.1,16.1,25,20.2,35.7,31.7c8.1,8.8,14.7,16,20.7,27c9.2,17.1,11.5,33.6,12,44.4"/>
		<path class="st14" d="M650.3,382.2c0.3,5.3,0.3,12.9-1.5,21.7c-1.7,8.4-5.7,20.9-18.7,38.1c-8.6,11.4-20.8,21.8-44.7,41.9
			c-19.1,16.1-25,20.2-35.7,31.7c-8.1,8.8-14.7,16-20.7,27c-9.2,17.1-11.5,33.6-12,44.4"/>
		<polyline class="st23" points="458.4,678.7 474.4,639.8 251.3,527.4 		"/>
		<polyline class="st23" points="575.8,678.7 559.7,639.8 782.9,527.4 		"/>
	</g>
</g>
</svg>
